# xmcd CD database file
#
# Track frame offsets:
#	150
#	13955
#	32054
#	49408
#	65288
#	79337
#	95213
#	107519
#	123550
#	140615
#	158249
#	176096
#	194133
#	208824
#	220586
#	233094
#	244918
#	254331
#	265427
#	281461
#	293806
#
# Disc length: 4073 seconds
#
# Revision: 0
# Processed by: cddbd v1.5.2PL0 Copyright (c) Steve Scherf et al.
# Submitted via: cdripper 1,0,33,916
#
DISCID=4d0fe715
DTITLE=Karel Gott - 33 Loï snù
DYEAR=2008
DGENRE=Komplet
TTITLE0=Svet má ty chvíle rád
TTITLE1=Kam se to ztrácí
TTITLE2=Dlouhá noc koncí svítáním
TTITLE3=Nalít jsem tvarùm tvých bluz
TTITLE4=Jeden muzikant
TTITLE5=Nevím, proc bych nepriznal, ze jsem lásku sliboval ve svých písních
TTITLE6=Nenech me za dvermi stát
TTITLE7=Lod snù
TTITLE8=Bourám sály svou písní
TTITLE9=Rozesmátá
TTITLE10=Jed, má to spád
TTITLE11=Na vlídném slove zádný neprodelá
TTITLE12=Nesmí se stát
TTITLE13=Tise den zhasíná
TTITLE14=Fever
TTITLE15=Love Me Tender
TTITLE16=One Night
TTITLE17=You´re The Devil In Disquise
TTITLE18=Modrý sen
TTITLE19=Krev toulavá
TTITLE20=Mám rád Máchùv Máj
EXTD=YEAR: 2008
EXTT0=
EXTT1=
EXTT2=
EXTT3=
EXTT4=
EXTT5=
EXTT6=
EXTT7=
EXTT8=
EXTT9=
EXTT10=
EXTT11=
EXTT12=
EXTT13=
EXTT14=
EXTT15=
EXTT16=
EXTT17=
EXTT18=
EXTT19=
EXTT20=
PLAYORDER=
